# xmcd
#
# Track frame offsets:
#	150
#	17750
#	31502
#	43834
#	61109
#	78844
#	95144
#	107013
#	119783
#	132635
#	145643
#	162113
#	178173
#	193763
#	204878
#	225668
#	242281
#	259828
#	273914
#
# Disc length: 3877 seconds
#
# Revision: 0
# Processed by: cddbd v1.5.2PL0 Copyright (c) Steve Scherf et al.
# Submitted via: dBpowerAMP V4.0
#
DISCID=000f2313
DTITLE=Bruno and Marrone - Perfil
DYEAR=1900
DGENRE=Country
TTITLE0=Choram As Rosas
TTITLE1=Credo Em Cruz Ave-Maria
TTITLE2=O Rebola do Da Morena
TTITLE3=Vida Vazia (Versão Acústica)
TTITLE4=Vai Dar Namoro
TTITLE5=Quer  Casar Comigo?
TTITLE6=Tá Liberado
TTITLE7=Feriado Nacional (Versão Acústica)
TTITLE8=Dormi Na Praçã (Versão Acústica)
TTITLE9=Prá Lá Que Eu Vou
TTITLE10=Por Que Choras? - Part. Esp. Banda Calypso
TTITLE11=Doce Desejo - Part. Esp. Cláudia Leite
TTITLE12=Que Pescar Que Nada
TTITLE13=Favo De Mel
TTITLE14=Por Um Minuto (Por Un Minuto)
TTITLE15=Metade Da Metade - Part. Esp. Ana Paula
TTITLE16=Meu Presente É Você
TTITLE17=Apaziguar
TTITLE18=Ligação Urbana (Ao Vivo)
EXTD=
EXTT0=
EXTT1=
EXTT2=
EXTT3=
EXTT4=
EXTT5=
EXTT6=
EXTT7=
EXTT8=
EXTT9=
EXTT10=
EXTT11=
EXTT12=
EXTT13=
EXTT14=
EXTT15=
EXTT16=
EXTT17=
EXTT18=
PLAYORDER=
